<svg xmlns="http://www.w3.org/2000/svg" width="400" height="600"><g fill-rule="evenodd"><path fill="none" d="M0 197.86v197.86l3.809-3.162c8.589-7.129 17.32-12.318 57.324-34.073 7.734-4.206 15.807-8.62 17.94-9.808l3.878-2.161 4.289-5.778c5.854-7.885 9.969-14.225 12.18-18.765 1.02-2.095 2.551-5.247 3.401-7.004 3.535-7.305 9.719-11.435 17.142-11.449l2.58-.004.249-2.637c.803-8.503-.07-25.68-1.713-33.691-1.326-6.465-.939-5.9-4.696-6.863-17.366-4.456-30.501-17.191-35.647-34.562-3.548-11.977-2.632-25.969 2.124-32.44.367-.5.148-1.302-1.122-4.101-5.285-11.649-7.014-16.145-8.736-22.722-2.774-10.593-1.615-27.399 2.765-40.096.437-1.269.796-2.367.796-2.439s-.835.509-1.856 1.293c-1.02.783-2.808 1.864-3.973 2.4l-2.118.976-.942-1.095c-1.096-1.274-1.031-2.124.524-6.884 3.237-9.903 12.518-22.633 22.18-30.421l2.665-2.148-1.675-1.487c-.921-.818-3.359-2.536-5.418-3.817-7.523-4.683-9.157-6.419-7.474-7.942 1.29-1.166 9.579-3.029 12.833-2.882 3.346.151 3.306.257 1.053-2.804-6.468-8.786 3.445-8.832 12.13-.056 3.182 3.216 2.948 3.122 3.879 1.547 6.31-10.683 29.362-29.239 36.322-29.239 3.175 0 3.159.625-.161 6.419-1.459 2.547-1.404 2.538 2.538-.408 8.682-6.487 18.091-10.586 19.591-8.535.755 1.033.649 3.607-.256 6.238-.973 2.829-1.227 2.72 3.144 1.347 21.195-6.654 39.936-9.301 49.834-7.038 4.251.972 4.501 2.874.603 4.584-3.608 1.584-4.012 1.82-4.423 2.587-.546 1.021-.853.934 7.117 2.015 21.019 2.85 43.284 8.736 54.574 14.427 6.094 3.072 5.33 5.429-2.234 6.895-3.785.733-5.214 1.157-3.904 1.157 4.807 0 28.851 11.969 33.05 16.453 3.783 4.039 1.695 5.202-9.367 5.216-7.019.01-7.658.065-6.85.596 10.36 6.814 16.423 16.08 10.275 15.702-3.021-.186-9.422-1.573-13.007-2.818-2.913-1.012-3.204-1.053-2.734-.384 6.741 9.611 15.129 24.788 18.766 33.955 2.606 6.566 2.662 6.66 6.3 10.548 6.999 7.482 7.328 11.454 2.027 24.48-3.772 9.27-3.627 11.835 1.439 25.549 4.334 11.733 4.456 23.896.472 47.265-3.794 22.257-4.642 28.134-6.028 41.797-2.073 20.422-3.833 24.919-11.834 30.235-10.257 6.815-26.766 9.896-40.109 7.487a984 984 0 0 0-4.906-.875l-1.194-.206-.817 3.808-.817 3.808 3.105 3.555c1.708 1.956 4.066 4.956 5.241 6.669l2.135 3.113 6.537 2.278c3.595 1.253 10.139 3.248 14.544 4.434 33.373 8.986 51.987 16.108 61.133 23.39 17.708 14.099 23.555 25.47 38.869 75.585 2.78 9.096 4.527 14.728 8.788 28.321 2.816 8.983 13.485 41.351 13.702 41.567.09.091.164-117.462.164-261.229V0H0zm396.875 364.896c-1.611 1.182-4.424 3.043-6.25 4.135a1667 1667 0 0 0-3.372 2.021c-.028.018.264 1.967.649 4.33.641 3.935 3.504 25.486 3.504 26.376 0 .226 1.756.382 4.297.382H400v-19.727c0-10.849-.044-19.713-.098-19.696-.053.016-1.416.997-3.027 2.179"/><path fill="#fac38a" d="M200.972 97.886c4.905 11.332.203 13.202-22.379 8.901-3.931-.749-7.832-1.308-8.668-1.242l-1.521.119 1.333 3.016c4.924 11.143 2.195 14.405-7.113 8.502-1.012-.641-2.007-1.166-2.212-1.166-.689 0 .32 12.876 2.066 26.367.418 3.222.879 8.251 1.026 11.174l.267 5.315-3.372 3.645c-5.407 5.843-6.146 7.111-6.524 11.207-.175 1.898-.678 5.554-1.117 8.125-1.594 9.321-2.767 18.076-3.191 23.815-.531 7.203-1.197 8.469-4.753 9.046-1.585.257-2.699-.808-11.151-10.664-12.169-14.192-22.384-18.727-34.71-15.408-3.637.98-8.588 5.358-9.314 8.237-.136.537-.682 1.549-1.214 2.248-4.89 6.426-1.226 26.63 6.789 37.428 10.134 13.654 31.975 20.927 40.226 13.394 3.629-3.312 5.306-1.658 11.941 11.774 12.034 24.365 24.298 34.612 54.64 45.657 31.689 11.534 62.072 14.739 79.728 8.41 12.129-4.348 13.103-6.049 14.74-25.747 1.101-13.245 2.567-23.986 5.411-39.649 4.715-25.967 4.415-43.63-.949-55.759-.507-1.146-1.038-2.704-1.18-3.464-.324-1.724-.505-1.511-2.14 2.524-2.365 5.839-4.826 7.041-7.708 3.767-2.258-2.565-3.049-6.71-2.002-10.483.56-2.014.533-2.02-3.209-.765l-3.267 1.095.088 1.482c.216 3.626 7.16 15.502 13.328 22.791 10.211 12.068 8.823 23.522-3.842 31.705-7.076 4.572-9.976-1.011-3.475-6.687 4.718-4.119 7.424-8.807 7.507-13.005.039-1.97.004-2.031-2.806-4.883-8.286-8.411-16.824-24.224-17.166-31.794-.566-12.51 6.594-25.222 18.769-33.321 1.45-.965 2.636-1.853 2.636-1.974 0-.714-5.549-13.896-7.505-17.83-4.774-9.596-8.005-14.264-17.709-25.586-6.313-7.365-8.165-9.151-10.61-10.233-2.109-.932-2.407-.726-1.55 1.072 1.62 3.397-.263 4.44-5.204 2.882-8.995-2.837-19.913-4.028-41.375-4.516-11.607-.264-11.875-.252-11.559.478m35.027 61.305c3.511.529 8.405 1.244 10.876 1.588 12.529 1.746 13.843 2.488 13.595 7.68-.192 3.999.053 3.951 1.429-.278 1.029-3.161 1.486-3.813 2.421-3.455 1.51.58-1.049 9.114-2.888 9.63-2.426.68-9.314.639-15.338-.092-7.631-.926-13.786-1.41-26.033-2.047-11.475-.598-12.574-.436-19.213 2.828-6.706 3.297-9.051 3.156-9.051-.547 0-4.227 14.92-14.791 23.047-16.319 2.999-.564 14.273-.025 21.155 1.012m64.978 4.641c-3.036.967-14.271 6.963-14.998 8.003-.848 1.213-2.529 5.397-3.155 7.853-.247.966-.532 2.045-.633 2.397-.159.551.162.514 2.333-.274 3.888-1.412 8.611-2.245 11.538-2.035l2.579.184 2.65-7.958c3.084-9.263 3.084-9.254-.314-8.17m-58.308 22.092c4.697 1.468 4.363 4.31-.507 4.31h-1.537v2.664c0 6.736-4.152 12.964-8.64 12.96-4.506-.004-7.412-4.382-7.455-11.229-.015-2.493-.164-3.613-.48-3.613-.507 0-5.823 1.792-12.709 4.285-6.395 2.315-9.388 2.09-9.388-.706 0-3.736 10.966-7.475 28.125-9.589 3.188-.393 9.986.103 12.591.918m50.937-.332c-1.284 1.833 1.063 3.668 2.655 2.075 1.108-1.108.277-2.901-1.345-2.901-.402 0-.991.371-1.31.826m-61.206 5.363c-1.852 1.499-.634 4.748 1.78 4.748.489 0 1.29-.324 1.779-.72 1.852-1.5.635-4.749-1.779-4.749-.49 0-1.291.325-1.78.721m-122.439 6.452c9.46 2.53 20.458 18.759 17.111 25.249-1.297 2.515-4.394 1.703-4.968-1.302-.32-1.677-2.055-5.338-2.529-5.338-2.54 0-5.903 4.192-5.903 7.357 0 5.126 3.728 9.423 9.385 10.814 4.709 1.158 6.06 2.241 5.079 4.073-1.454 2.718-8.045 2.438-12.688-.539-10.964-7.03-11.73-20.699-1.484-26.482 2.437-1.375 2.446-1.425.649-3.414-4.805-5.318-14.132-5.537-16.851-.395-2.397 4.534-4.806 3.9-4.785-1.258.028-6.781 8.349-11.075 16.984-8.765m152.093 33.596c.521.405.436 2.706-.157 4.252-.495 1.29 1.458 1.2 4.931-.228 8.639-3.551 12.363-4.309 13.854-2.818 2.541 2.541.288 5.32-6.144 7.576-1.866.655-4.679 1.741-6.25 2.414-5.226 2.238-8.273 1.944-10.075-.972-2.939-4.756.184-13.07 3.841-10.224m29.394 23.414c3.254 4.492 3.309 10.682.097 10.916-.684.05-.831.299-.801 1.355.068 2.405-2.291 3.207-9.494 3.228-5.555.015-15.934 2.157-26.172 5.402-8.084 2.561-9.896 2.434-9.896-.695 0-2.042 3.53-3.88 13.412-6.981 10.259-3.22 23.837-5.11 28.663-3.991l1.515.352-.229-2.021c-1.102-9.729-.257-11.93 2.905-7.565m-155.411 6.197c-1.443.892-4.831 1.874-6.489 1.881-.881.004-1.063.142-.866.657 1.458 3.798 2.955 18.013 2.957 28.059.002 11.386-.865 17.94-3.762 28.449-2.128 7.719-2.128 7.795.107 11.077 13.254 19.463 41.612 45.004 74.164 66.796 3.223 2.158 6.433 4.216 7.133 4.574l1.273.651 4-3.647c9.439-8.606 13.935-16.383 18.452-31.923.156-.538-.721.517-1.949 2.343-4.701 6.99-5.56 7.613-7.431 5.389-1.576-1.872-1.219-3.538 2.743-12.811 4.754-11.129 8.406-20.506 10.115-25.976l.488-1.563-4.912-.029c-8.996-.053-18.516-3.494-35.055-12.672-28.826-15.995-49.122-36.984-58.448-60.443-.746-1.876-.781-1.887-2.52-.812m149.119 19.074c2.16 2.159-2.285 5.404-10.018 7.312-3.928.969-6.703-.699-5.136-3.09 2.012-3.071 13.191-6.186 15.154-4.222m88.086 295.761c-9.778 4.188-24.192 8.648-30.711 9.503-2.198.288-2.297.694-2.297 9.438V600h42.681l-.225-1.66c-.123-.913-.885-6.978-1.693-13.477-.886-7.128-1.631-11.804-1.877-11.786-.225.016-2.87 1.083-5.878 2.372"/><path fill="#0b1318" d="M161.039 39.412c-3.908 1.36-7.674 3.477-12.601 7.082-5.449 3.986-5.423 3.977-3.893 1.308 3.306-5.768 3.32-6.396.148-6.396-6.96 0-30.012 18.556-36.322 29.239-.931 1.575-.697 1.669-3.879-1.547-8.685-8.776-18.598-8.73-12.13.056 2.253 3.061 2.293 2.955-1.053 2.804-3.254-.147-11.543 1.716-12.833 2.882-1.683 1.523-.049 3.259 7.474 7.942 2.059 1.281 4.497 2.999 5.418 3.817l1.675 1.487-2.665 2.148c-9.662 7.788-18.943 20.518-22.18 30.421-1.555 4.76-1.62 5.61-.524 6.884l.942 1.095 2.118-.976c1.165-.536 2.953-1.617 3.973-2.4 1.021-.784 1.855-1.366 1.855-1.293 0 .072-.358 1.17-.795 2.439-4.38 12.697-5.539 29.503-2.765 40.096 1.722 6.577 3.451 11.073 8.736 22.722 1.27 2.799 1.489 3.601 1.122 4.101-4.756 6.471-5.672 20.463-2.124 32.44 5.146 17.371 18.281 30.106 35.647 34.562 3.757.963 3.37.398 4.696 6.863 1.643 8.011 2.516 25.188 1.713 33.691l-.249 2.637-2.58.004c-7.423.014-13.607 4.144-17.142 11.449-.85 1.757-2.381 4.909-3.401 7.004-2.211 4.54-6.326 10.88-12.18 18.765l-4.289 5.778-3.878 2.161c-2.133 1.188-10.206 5.602-17.94 9.808-40.004 21.755-48.735 26.944-57.324 34.073L0 395.72V600h340.234v-5.61c0-8.744.099-9.15 2.297-9.438 6.541-.858 19.789-4.938 30.488-9.39 3.465-1.443 6.358-2.554 6.429-2.471.07.083.598 4.018 1.173 8.745s1.33 10.747 1.678 13.379l.632 4.785h4.238c2.503 0 4.237-.156 4.237-.382 0-.881-2.861-22.427-3.502-26.376-.384-2.363-.588-4.342-.453-4.397.752-.307 8.395-5.248 10.303-6.66l2.246-1.663v-37.098l-5.832-17.669c-3.208-9.718-6.824-20.833-8.035-24.7-4.351-13.887-6.025-19.281-8.787-28.321-15.314-50.115-21.161-61.486-38.869-75.585-9.146-7.282-27.76-14.404-61.133-23.39-4.405-1.186-10.949-3.181-14.544-4.434l-6.537-2.278-2.135-3.113c-1.175-1.713-3.533-4.713-5.241-6.669l-3.105-3.555.817-3.808.817-3.808 1.194.206c.657.113 2.865.507 4.906.875 13.343 2.409 29.852-.672 40.109-7.487 8.001-5.316 9.761-9.813 11.834-30.235 1.386-13.663 2.234-19.54 6.028-41.797 3.984-23.369 3.862-35.532-.472-47.265-5.066-13.714-5.211-16.279-1.439-25.549 5.301-13.026 4.972-16.998-2.027-24.48-3.638-3.888-3.694-3.982-6.3-10.548-3.637-9.167-12.025-24.344-18.766-33.955-.47-.669-.179-.628 2.734.384 3.585 1.245 9.986 2.632 13.007 2.818 6.148.378.085-8.888-10.275-15.702-.808-.531-.169-.586 6.85-.596 11.062-.014 13.15-1.177 9.367-5.216-4.199-4.484-28.243-16.453-33.05-16.453-1.31 0 .119-.424 3.904-1.157 7.564-1.466 8.328-3.823 2.234-6.895-11.29-5.691-33.555-11.577-54.574-14.427-7.97-1.081-7.663-.994-7.117-2.015.411-.767.815-1.003 4.423-2.587 3.898-1.71 3.648-3.612-.603-4.584-9.898-2.263-28.639.384-49.834 7.038-4.371 1.373-4.117 1.482-3.144-1.347 2.162-6.284.714-7.824-5.366-5.708m69.234 58.66c9.047.609 17.949 2.059 23.633 3.852 4.941 1.558 6.824.515 5.204-2.882-.857-1.798-.559-2.004 1.55-1.072 2.445 1.082 4.297 2.868 10.61 10.233 9.704 11.322 12.935 15.99 17.709 25.586 1.956 3.934 7.505 17.116 7.505 17.83 0 .121-1.186 1.009-2.636 1.974-12.175 8.099-19.335 20.811-18.769 33.321.342 7.57 8.88 23.383 17.166 31.794 2.81 2.852 2.845 2.913 2.806 4.883-.083 4.198-2.789 8.886-7.507 13.005-6.501 5.676-3.601 11.259 3.475 6.687 12.665-8.183 14.053-19.637 3.842-31.705-6.168-7.289-13.112-19.165-13.328-22.791l-.088-1.482 3.267-1.095c3.742-1.255 3.769-1.249 3.209.765-1.047 3.773-.256 7.918 2.002 10.483 2.975 3.38 5.359 2.089 7.942-4.301l1.521-3.764.448 1.886c.246 1.037.815 2.713 1.263 3.725 5.211 11.762 5.471 29.683.803 55.386-2.844 15.663-4.31 26.404-5.411 39.649-1.637 19.698-2.611 21.399-14.74 25.747-17.656 6.329-48.039 3.124-79.728-8.41-30.342-11.045-42.606-21.292-54.64-45.657-6.635-13.432-8.312-15.086-11.941-11.774-8.251 7.533-30.092.26-40.226-13.394-8.015-10.798-11.679-31.002-6.789-37.428.532-.699 1.078-1.711 1.214-2.248.726-2.879 5.677-7.257 9.314-8.237 12.326-3.319 22.541 1.216 34.71 15.408 8.452 9.856 9.566 10.921 11.151 10.664 3.556-.577 4.222-1.843 4.753-9.046.424-5.739 1.597-14.494 3.191-23.815.439-2.571.942-6.227 1.117-8.125.378-4.096 1.117-5.364 6.524-11.207l3.372-3.645-.267-5.315c-.147-2.923-.608-7.952-1.026-11.174-1.746-13.491-2.755-26.367-2.066-26.367.205 0 1.2.525 2.212 1.166 5.128 3.252 8.312 3.662 9.61 1.236.5-.935-.734-5.748-2.497-9.738l-1.333-3.016 1.521-.119c.836-.066 4.737.493 8.668 1.242 13.253 2.524 17.791 2.757 21.518 1.105 3.427-1.519 3.611-3.655.861-10.006-.357-.826 15.776-.723 29.301.186m-15.429 60.107c-8.127 1.528-23.047 12.092-23.047 16.319 0 3.703 2.345 3.844 9.051.547 6.639-3.264 7.738-3.426 19.213-2.828 12.247.637 18.402 1.121 26.033 2.047 6.024.731 12.912.772 15.338.092 1.839-.516 4.398-9.05 2.888-9.63-.935-.358-1.392.294-2.421 3.455-1.376 4.229-1.621 4.277-1.429.278.248-5.192-1.066-5.934-13.595-7.68-2.471-.344-7.365-1.059-10.876-1.588-6.882-1.037-18.156-1.576-21.155-1.012m88.75 6.411c-.064.598-.742 2.877-1.507 5.065a268 268 0 0 0-2.379 7.144l-.987 3.167-2.618-.187c-2.97-.213-7.666.611-11.579 2.032-2.171.788-2.492.825-2.333.274.101-.352.386-1.431.633-2.397.626-2.456 2.307-6.64 3.155-7.853.443-.633 3.104-2.237 7.073-4.261 8.918-4.548 10.766-5.071 10.542-2.984m-73.516 20.416c-17.159 2.114-28.125 5.853-28.125 9.589 0 2.796 2.993 3.021 9.388.706 6.886-2.493 12.202-4.285 12.709-4.285.316 0 .465 1.12.48 3.613.043 6.847 2.949 11.225 7.455 11.229 4.488.004 8.64-6.224 8.64-12.96v-2.664h1.537c2.919 0 4.391-1.145 3.533-2.749-.913-1.705-10.082-3.161-15.617-2.479m66.183.373c.72.72.759 1.12.21 2.147-.816 1.524-3.502.647-3.502-1.144 0-.642 1.177-1.616 1.953-1.616.399 0 1.002.276 1.339.613m-59.961 5.885c1.516 1.928.317 4.439-2.12 4.439-1.404 0-2.93-1.424-2.93-2.734s1.526-2.735 2.93-2.735c.95 0 1.533.283 2.12 1.03m-135.521 6.167c-5.165 1.427-7.784 4.361-7.802 8.741-.021 5.158 2.388 5.792 4.785 1.258 2.983-5.641 13.387-4.731 17.869 1.562l.796 1.119-1.755.776c-8.917 3.944-10.646 15.344-3.502 23.075 4.843 5.239 10.599 7.403 15.005 5.639 4.14-1.656 2.816-3.955-3.118-5.414-5.657-1.391-9.385-5.688-9.385-10.814 0-3.165 3.363-7.357 5.903-7.357.474 0 2.209 3.661 2.529 5.338.574 3.005 3.671 3.817 4.968 1.302 1.547-3-.116-8.473-4.647-15.288-5.67-8.53-13.586-12.163-21.646-9.937m158.27 33.63c-3.154 2.653-2.389 10.295 1.217 12.16 1.663.86 4.459.504 8.022-1.022 1.571-.673 4.384-1.759 6.25-2.414 6.432-2.256 8.685-5.035 6.144-7.576-1.491-1.491-5.215-.733-13.854 2.818-3.473 1.428-5.426 1.518-4.931.228 1.417-3.691-.352-6.295-2.848-4.194m29.179 22.163c-.412.77-.329 3.067.315 8.758l.229 2.021-1.515-.352c-9.628-2.233-42.075 6.228-42.075 10.972 0 3.129 1.812 3.256 9.896.695 10.238-3.245 20.617-5.387 26.172-5.402 7.203-.021 9.562-.823 9.494-3.228-.03-1.056.117-1.305.801-1.355 1.154-.084 2.596-1.864 2.596-3.204 0-4.696-4.521-11.505-5.913-8.905m-149.671 8.202c7.27 18.286 19.525 33.181 40.154 48.8 17.806 13.482 41.421 24.245 53.349 24.315l4.912.029-.488 1.563c-1.709 5.47-5.361 14.847-10.115 25.976-3.973 9.299-4.321 10.936-2.726 12.831 1.815 2.158 4.187.248 8.073-6.501 1.669-2.898 1.69-2.412.11 2.576-4.074 12.867-8.355 19.869-17.08 27.934l-4.146 3.833-1.296-.663c-.713-.365-3.933-2.428-7.156-4.586-32.552-21.792-60.91-47.333-74.164-66.796-2.235-3.282-2.235-3.358-.107-11.077 2.897-10.509 3.764-17.063 3.762-28.449-.002-10.046-1.499-24.261-2.957-28.059-.197-.515-.015-.653.866-.657 1.658-.007 5.046-.989 6.489-1.881 1.739-1.075 1.774-1.064 2.52.812m139.813 18.292c-7.558 1.857-11.275 5.977-6.808 7.548 3.078 1.082 14.376-3.868 14.376-6.298 0-2.037-2.609-2.468-7.568-1.25"/></g></svg>