<?xml version="1.0" standalone="no"?>
<!DOCTYPE svg PUBLIC "-//W3C//DTD SVG 20010904//EN"
 "http://www.w3.org/TR/2001/REC-SVG-20010904/DTD/svg10.dtd">
<svg version="1.0" xmlns="http://www.w3.org/2000/svg"
 width="500.000000pt" height="500.000000pt" viewBox="0 0 500.000000 500.000000"
 preserveAspectRatio="xMidYMid meet">

<g transform="translate(0.000000,500.000000) scale(0.100000,-0.100000)"
fill="#000000" stroke="none">
<path d="M2357 4436 c-32 -13 -63 -29 -70 -34 -9 -8 -32 -4 -82 14 -175 64
-404 30 -561 -81 -43 -31 -57 -35 -109 -35 -73 0 -201 -30 -280 -65 -135 -59
-275 -191 -350 -329 -93 -171 -133 -351 -120 -545 14 -215 90 -407 319 -809
55 -97 60 -122 47 -247 -6 -60 -8 -112 -4 -115 5 -4 37 -12 73 -19 36 -7 102
-24 148 -38 46 -13 86 -23 88 -20 2 2 -6 106 -19 231 -12 125 -19 229 -16 232
20 12 476 -520 589 -687 28 -42 62 -78 90 -95 48 -30 204 -157 216 -175 3 -6
-2 -23 -13 -37 -53 -73 -143 -211 -143 -219 0 -6 27 -40 60 -76 l60 -65 0
-189 -1 -188 -72 140 c-40 77 -90 167 -111 200 -102 159 -169 255 -216 310
-27 33 -74 89 -104 125 -51 63 -189 193 -291 276 -95 77 -350 235 -359 222 -1
-2 -17 -49 -35 -105 -48 -149 -145 -306 -251 -407 -33 -32 -60 -59 -60 -60 0
-2 27 -6 59 -9 136 -15 413 -131 596 -252 329 -217 730 -587 948 -874 99 -129
91 -127 128 -46 17 39 42 113 56 165 21 83 24 109 19 205 -3 64 -13 140 -25
180 -11 38 -18 72 -15 74 5 5 44 -31 218 -199 117 -114 254 -268 326 -367 25
-34 49 -61 55 -59 5 1 23 43 40 92 28 84 30 98 29 244 l0 155 -42 118 c-24 66
-63 162 -87 214 -25 53 -45 103 -45 112 0 9 11 33 25 54 l26 37 -25 33 c-13
17 -44 61 -68 97 -23 36 -50 65 -58 65 -13 0 -140 -168 -140 -185 0 -4 18 -29
40 -56 l39 -48 3 -182 c2 -100 0 -180 -4 -178 -4 3 -30 46 -59 97 -83 147
-210 309 -421 540 l-78 84 0 187 0 186 149 0 149 0 84 -112 c47 -62 101 -138
121 -168 21 -31 57 -72 81 -93 l44 -36 14 21 c14 21 16 20 59 -43 112 -166
183 -268 186 -265 10 10 -66 171 -143 301 l-54 90 25 120 c14 66 29 134 33
150 l8 30 195 5 c205 5 214 7 263 58 35 38 44 101 25 179 -11 50 -11 59 4 85
9 16 17 43 17 58 0 16 14 53 31 82 l31 52 -26 63 c-14 35 -26 69 -26 76 0 7
32 28 70 47 39 19 70 38 70 43 0 5 -16 35 -35 67 -19 32 -41 70 -47 86 -7 16
-35 68 -61 116 l-48 86 33 53 32 52 -27 101 c-15 56 -44 162 -64 237 l-36 137
65 63 c35 35 74 85 86 110 43 89 63 245 43 334 -7 29 -7 29 -19 -19 -15 -56
-49 -125 -86 -176 -41 -55 -138 -151 -169 -166 l-27 -15 32 44 c18 24 47 69
63 100 18 34 35 55 42 52 11 -4 33 23 33 40 0 16 -46 -3 -56 -23 -35 -70 -177
-169 -296 -207 -99 -31 -125 -32 -78 -2 54 33 110 78 110 88 0 4 -19 1 -42 -7
-91 -33 -214 -54 -315 -54 l-101 0 18 48 c11 26 21 55 24 65 5 14 18 17 79 17
148 0 408 58 527 117 40 21 100 62 132 91 l58 54 0 70 0 70 -27 -5 c-309 -56
-503 -77 -701 -77 l-138 0 -50 48 c-67 64 -114 85 -199 89 -56 3 -81 -1 -128
-21z m221 -75 c81 -41 142 -147 142 -247 0 -102 -63 -226 -145 -285 -41 -29
-44 -34 -30 -49 15 -16 155 -422 155 -448 0 -7 -15 -36 -34 -64 l-35 -51 24
-47 c13 -25 53 -97 89 -158 35 -62 68 -121 71 -131 6 -21 1 -22 -159 -37 l-69
-6 8 47 7 48 -33 -19 c-23 -14 -40 -37 -60 -84 l-28 -65 35 -8 34 -9 -30 -42
c-48 -71 -95 -106 -140 -106 -70 0 -103 57 -59 101 l22 22 -29 -7 c-16 -4 -42
-21 -58 -38 -26 -28 -28 -36 -24 -94 3 -50 10 -73 34 -106 54 -79 172 -115
290 -89 44 10 66 24 114 68 64 59 75 58 68 -8 -3 -33 -4 -34 -43 -31 -38 3
-42 1 -58 -33 -9 -20 -17 -38 -17 -40 0 -3 18 -5 39 -5 36 0 40 -3 55 -40 20
-51 21 -109 0 -138 -31 -44 -63 -52 -214 -52 -135 0 -145 1 -233 34 -51 18
-164 59 -252 91 -259 94 -248 90 -256 118 -4 14 -19 100 -35 190 l-28 165 -51
-29 c-69 -39 -123 -39 -191 1 -144 82 -244 285 -191 386 27 52 85 94 129 94
64 0 98 -22 215 -135 65 -62 119 -112 120 -111 2 1 -5 77 -14 168 l-16 166 49
49 c66 66 129 165 149 236 12 41 16 85 13 142 l-3 82 140 6 c308 12 483 109
511 285 14 89 -24 162 -96 183 -60 18 -103 -9 -152 -96 -83 -147 -200 -230
-356 -255 -131 -20 -273 13 -370 86 l-34 26 20 -38 c35 -68 91 -106 253 -172
25 -10 26 -12 19 -64 -9 -65 -57 -164 -107 -219 -39 -43 -108 -91 -190 -133
-46 -23 -183 -69 -189 -63 -1 1 34 34 79 72 71 61 157 158 157 177 0 3 -30
-14 -67 -39 -61 -41 -337 -183 -355 -183 -5 0 -8 4 -8 10 0 17 159 208 213
254 28 26 46 46 38 46 -29 0 -211 -103 -275 -156 -37 -31 -69 -54 -71 -52 -2
2 17 39 42 83 54 95 113 159 208 227 l70 50 -54 -6 c-97 -13 -161 -45 -311
-160 -21 -16 56 121 98 174 43 55 117 117 197 165 67 40 53 46 -48 19 -112
-29 -258 -121 -322 -203 -21 -28 -41 -49 -42 -47 -9 8 42 117 83 178 129 193
386 338 602 338 26 0 52 4 58 9 22 22 157 82 215 96 81 19 208 19 278 0 63
-16 79 -28 64 -47 -14 -16 -43 -114 -43 -142 0 -16 6 -11 26 19 37 55 133 153
169 172 72 38 153 40 223 4z m971 -10 c-54 -49 -165 -113 -261 -153 -103 -42
-330 -97 -413 -100 l-70 -3 -6 50 c-4 28 -11 62 -17 76 l-10 26 146 6 c264 10
489 51 617 112 28 13 52 24 54 24 2 1 -16 -17 -40 -38z m-160 -626 c23 -12 31
-26 45 -82 9 -37 37 -141 62 -230 l45 -162 -36 -53 c-19 -29 -35 -57 -35 -63
0 -6 41 -82 90 -169 50 -87 90 -162 90 -166 0 -11 -38 -18 -142 -26 l-86 -6 5
41 c6 45 5 46 -31 29 -18 -7 -32 -28 -46 -65 -11 -30 -20 -58 -20 -63 0 -10
40 -18 105 -22 l40 -3 -71 -37 c-70 -36 -99 -64 -188 -180 -20 -27 -34 -48
-32 -48 12 0 276 31 304 35 31 6 32 5 32 -30 0 -34 -1 -35 -40 -35 -36 0 -41
-3 -60 -40 l-20 -40 40 0 c35 0 42 -4 52 -27 6 -16 11 -50 12 -76 1 -44 -2
-52 -38 -84 -38 -35 -40 -35 -105 -31 -67 5 -197 51 -431 152 -170 73 -160 66
-160 109 0 21 5 37 12 37 6 0 27 12 46 26 94 72 96 250 5 346 l-26 28 51 21
c50 21 52 23 39 43 -8 12 -38 66 -67 121 -29 55 -70 132 -91 171 -35 63 -37
73 -24 84 9 7 25 26 36 42 17 23 19 34 11 58 -10 27 -8 32 24 57 l35 28 -40
118 -40 117 147 0 c162 0 279 19 392 63 79 31 74 30 109 12z m-1864 -248 c-7
-16 -45 -31 -45 -17 0 10 42 42 47 36 2 -2 1 -10 -2 -19z m1264 -751 c43 -41
63 -134 45 -203 -8 -28 -24 -20 -24 11 0 32 -59 156 -74 156 -6 0 -17 -19 -23
-42 -16 -59 -60 -108 -100 -113 -20 -2 -33 0 -33 7 0 6 -3 9 -6 5 -3 -3 -2
-13 4 -23 6 -11 11 -13 16 -5 4 6 13 11 19 11 7 -1 1 -9 -12 -20 -12 -11 -27
-18 -31 -15 -5 3 -10 0 -12 -7 -3 -8 -11 -7 -29 6 l-24 17 26 -6 c27 -7 55 15
31 23 -7 2 -10 8 -6 13 6 10 -87 -31 -96 -42 -3 -4 -27 -5 -55 -3 -39 3 -56
10 -80 34 l-30 31 30 -8 c92 -25 176 16 242 117 52 79 72 91 141 87 40 -3 59
-10 81 -31z m784 -201 c8 -20 -2 -23 -53 -15 l-45 7 35 10 c49 15 57 15 63 -2z
m-1065 -34 c11 -7 10 -10 -3 -15 -20 -7 -38 1 -30 15 7 11 16 11 33 0z"/>
<path d="M1974 4194 c-105 -44 -212 -59 -306 -44 -39 6 -79 15 -89 21 -34 17
-11 -17 29 -45 127 -87 291 -73 400 36 29 28 52 55 52 60 0 4 -1 7 -2 7 -2 -1
-40 -17 -84 -35z"/>
<path d="M2210 3295 c-36 -36 -80 -76 -97 -88 -18 -12 -33 -25 -33 -29 0 -4
30 -22 68 -39 l67 -31 62 34 c60 31 63 32 76 14 13 -18 14 -18 31 5 15 21 18
22 26 8 26 -46 46 -57 108 -63 62 -6 63 -5 56 17 -3 12 -12 34 -20 48 -12 24
-10 29 18 63 l30 37 -21 23 c-18 20 -45 27 -155 45 -73 11 -137 21 -142 21 -5
0 -39 -29 -74 -65z m210 -68 c-14 -6 -63 -28 -109 -49 -93 -42 -91 -41 -91
-29 0 8 120 67 168 81 40 12 61 10 32 -3z"/>
<path d="M1349 3080 c-25 -15 -42 -65 -35 -105 4 -19 11 -35 16 -35 5 0 7 6 4
14 -6 16 41 56 67 56 22 0 22 -1 8 -50 -10 -32 -8 -43 15 -88 26 -52 26 -52
75 -52 39 0 56 -6 81 -26 17 -15 32 -25 34 -23 15 15 5 41 -27 72 -34 32 -38
39 -32 71 18 91 -131 210 -206 166z"/>
<path d="M3084 3246 c-21 -19 -68 -61 -103 -94 l-65 -60 68 -34 68 -33 60 33
c47 25 63 30 74 21 11 -9 19 -8 38 4 23 15 24 15 42 -19 18 -33 20 -34 81 -34
68 0 72 4 47 51 -14 29 -14 32 15 71 32 43 30 69 -5 82 -12 5 -260 46 -277 46
-2 0 -21 -15 -43 -34z m196 -81 c0 -8 -213 -106 -224 -102 -17 6 181 103 217
106 4 1 7 -1 7 -4z"/>
</g>
</svg>
