<?xml version="1.0" standalone="no"?>
<svg viewBox="-350 -150 1500 1500" style="width: 390px; height: 390px; justify-content: center; align-self: center; transform: scale(1, 1);" xmlns="http://www.w3.org/2000/svg"><rect x="-350" y="-150" width="100%" height="100%" fill="#fbeaeb" rx="30"></rect><g transform="rotate(0 408.5065425634384 590.2591400146484)"><g id="body_Hoodie" data-name="body/Hoodie" transform="translate(0 459)"><path id="_Skin" data-name="âœ‹ Skin" d="M778.244,749.543c19.326-.933,11.553-34.738,10.166-47.153-15.3-45.344-11.7-94.816-17.722-142.344-3.749-44.368-8.566-88.6-12.618-132.932-7.958-89.994-65.1-273.2-130.32-302.661-8.215-36.046-42.146-69.694-85.076-69.694C513.394,20.1,478.151-4.293,432.948.632c-18.68.85-36.8,20.662-54.695,24.488-10.022,1.382-98.962-2.175-116.778,8.406-12.41,6.372-23.613,18.147-19.964,33.138,5.822,18.162-12.271-1.49-50.014,17.895-76.963,46.223-30.973,108.06-28.935,109.976C114.534,261.358,72.555,315.57,53.132,397.247,40.544,457.886,41.961,520.485,31.414,581.435,27.69,602.569,21.977,622.98,15.8,643.5c-6.7,26.859-9.958,93.8-13.651,94.4-6.727,1.671,3.888,15.483,11.016,15.494,197.624,32.781,398.362,1.358,597.048-3.776C666.2,747.675,722.254,747.226,778.244,749.543Z" transform="translate(12.504 -34)" fill="#d08b5b"></path><path id="_Jacket" data-name="ðŸ§¥ Jacket" d="M378.5,64.457c0,21.032,73.03,99.184,98.234,94.028q25.2-5.156,76.16-67.249V64.457L545.558,35.3c41.56,1.465,74.161,34.409,82.191,69.643,64.563,29.169,121.219,209.019,130.067,299.934l.253,2.728c4.052,44.334,8.869,88.564,12.618,132.932,6.018,47.528,2.421,97,17.722,142.344l.091.77c1.6,12.984,8.683,45.469-10.257,46.383-55.99-2.317-112.043-1.868-168.036.079-198.686,5.134-399.424,36.557-597.048,3.776C6.032,733.882-4.583,720.07,2.144,718.4,5.837,717.8,9.1,650.857,15.8,624l1.272-4.245c5.689-19.1,10.88-38.147,14.347-57.823,10.547-60.95,9.13-123.549,21.718-184.188,19.423-81.677,61.4-135.889,109.43-202.712-2.038-1.916-48.028-63.752,28.935-109.976,37.743-19.385,55.836.267,50.014-17.9-3.649-14.991,7.554-26.766,19.964-33.138C279.291,3.44,368.231,7,378.253,5.615A53.6,53.6,0,0,0,392.27,0l-.814,2.71Q378.5,46.129,378.5,64.457Z" transform="translate(12.504 -14.495)" fill="#9fd8e5"></path><path id="_Ink" data-name="ðŸ– Ink" d="M489.923,756.62a2.312,2.312,0,0,1-2.344-2.262c-2.9-42.141-4.793-84.108-6.62-124.693l0-.039c-1.3-28.844-2.125-58.437-2.525-90.472-.544,0-1.1.009-1.633.014h-.079c-.79.007-1.608.015-2.412.018-21.611.094-43.954.192-65.926.192-18.81,0-35.54-.071-51.146-.218l.01.009a.977.977,0,0,1,.162.247c2.792,6.59,3.1,14.986,3.024,22.33a110.352,110.352,0,0,1-3.073,24.292,127.572,127.572,0,0,1-6.955,20.859,156.4,156.4,0,0,1-10.19,19.6,215.18,215.18,0,0,1-26.985,34.9l-.65.689c-.692.732-1.414,1.479-2.113,2.2l-.033.034c-4.11,4.253-8.361,8.65-10.81,14.018-2.341,5.129-3.468,10.961-4.559,16.6-.276,1.426-.56,2.9-.857,4.317l-.17.8-5.678,26.226c-.385,1.778-.708,3.712-1.05,5.759-1.253,7.5-2.673,16-7.86,20.73a10.5,10.5,0,0,1-7.1,2.936c-4.313,0-8.276-2.934-10.1-7.476-1.923-4.79-.6-9.924.684-14.889l0-.007c.218-.845.443-1.718.644-2.56l10.491-44.1c1.768-7.374,3.659-14.52,7.328-20.891,3.8-6.592,9.257-11.292,15.036-16.268l.063-.054a191.116,191.116,0,0,0,15.448-14.892,182.332,182.332,0,0,0,13.638-16.562,159.839,159.839,0,0,0,20.559-37.558,135.328,135.328,0,0,0,5.995-20.622c.652-3.2.992-6.515,1.32-9.716a92.537,92.537,0,0,1,1.463-10.373,1.28,1.28,0,0,1,.922-.9.564.564,0,0,1,.059-.49.51.51,0,0,1,.406-.226l31.918-2.051c27.254-1.758,56.425-3.683,85.089-5.852l5.009-.362c-.356-36.713-.137-76.214.668-120.758.25-13.856.411-27.947.566-41.573v-.057c.258-22.66.526-46.092,1.211-69.132.563-18.876,1.79-37.532,3.033-54.882,1.049-14.631,2.617-29.42,4.135-43.723.421-3.967.856-8.069,1.279-12.157a.7.7,0,0,1,1.406,0l1.395,13.469c1.544,14.958,3.294,32.344,4.517,49.395,1.482,20.683,2.472,41.5,2.941,61.869,1.724,74.713,2,150.6,2.13,215.867,9.478-.657,19.3-1.313,29.2-1.951,5.856-.378,12.154-.772,19.82-1.238l16.847-1.021,6.936-.426c.65-.04,1.326-.1,1.98-.156h.008c1.253-.109,2.548-.221,3.8-.221,2.368,0,5.361.348,7.5,3.059,1.545,1.956,1.817,4.068.747,5.794-2.635,4.251-6.555,4.391-11.093,4.553l-.054,0-.908.034c-4.6.186-9.267.371-13.872.548-8.77.341-19.16.729-29.729,1.026-10.465.294-20.961.532-31.2.706-.105,30.326-1.347,60.377-2.722,91.057l-.615,13.655c-1.857,41.238-3.587,75.855-5.993,110.761A2.313,2.313,0,0,1,489.923,756.62Zm-299.2-3.946a6.222,6.222,0,0,1-5.53-3.115l.7.462a1.127,1.127,0,0,0,.213.12c.013-.032-.709-.582-2.271-1.73l-1.683-2.177a13.62,13.62,0,0,1-2.317-5.83,33.884,33.884,0,0,1,.138-7.83c.084-.9.171-1.819.229-2.7l3.864-59.612c1.11-17.117,2.3-34.433,3.456-51.178,1.982-28.784,4.031-58.547,5.7-87.862,1.094-19.208,2.13-41.938,1.51-64.889-.352-13.043-.814-23.049-1.5-32.442-.864-11.865-2.078-22.413-3.71-32.247a2.022,2.022,0,0,1,.442-1.667,1.936,1.936,0,0,1,1.45-.693,1.805,1.805,0,0,1,1.536.915,139.638,139.638,0,0,1,8.924,16.412,148.043,148.043,0,0,1,6.59,17.1,186.683,186.683,0,0,1,7.392,36.247,296.546,296.546,0,0,1,1.623,33.354c-.029,12.042-.612,24.174-1.118,33.4-1.286,23.482-2.785,46.965-4.337,70.961l-2.349,36.263-5.9,90.909a27.791,27.791,0,0,1-1.807,9.024,12.44,12.44,0,0,1-5.69,6.414,13.383,13.383,0,0,1-2.309,1.583A6.928,6.928,0,0,1,190.724,752.674ZM15.274,751.2a9.532,9.532,0,0,1-5.922-2.065A11.114,11.114,0,0,1,5.7,743.866a106.971,106.971,0,0,1-4.75-23.005,204.335,204.335,0,0,1-.93-23.554C.156,683.232,1.74,668.36,5,650.506c3.8-20.789,9.094-41.623,14.215-61.771l0-.008.009-.033c2.363-9.3,4.806-18.908,7.069-28.388,3.14-13.156,5.81-26.551,7.935-39.812,2.119-13.223,3.771-26.781,4.911-40.3.584-6.92,1.119-13.962,1.636-20.773l0-.057c1.584-20.857,3.222-42.425,6.483-63.47a287.058,287.058,0,0,1,9.275-40.442A277.026,277.026,0,0,1,71.7,316.836c12.087-25.065,27.314-48.08,39.23-65.33,9.029-13.069,18.328-25.521,27.641-37.009,9.934-12.254,20.24-23.854,30.633-34.479a11.889,11.889,0,0,1-5.738-1.844,17.369,17.369,0,0,1-6.275-7.219,29.569,29.569,0,0,1-2.693-9.269,127,127,0,0,1-.942-22.069,105.4,105.4,0,0,1,3.261-21.826A81.276,81.276,0,0,1,172.75,86.531a70.167,70.167,0,0,1,12.766-11.956,64.411,64.411,0,0,1,15.644-8.314,56.982,56.982,0,0,1,18.222-3.055c.544-.014,1.123-.02,1.771-.02.956,0,1.916.014,2.844.028H224c.941.014,1.913.028,2.888.028a33.842,33.842,0,0,0,10.431-1.277c3.747-1.232,6.931-3.886,9.733-8.116A70.9,70.9,0,0,0,252.9,41.966c.233-.56.453-1.09.677-1.623l.156-.37a74.515,74.515,0,0,1,7.576-14.165,44.2,44.2,0,0,1,11.37-11.278C283.26,7.323,296.633,4.361,307.1,2.586l.754-.127A174.615,174.615,0,0,1,336.325,0C356.316,0,374,3.979,388.875,11.827a.22.22,0,0,1,.105.256.224.224,0,0,1-.213.18h-.011l-7.941-.317c-9.588-.376-17.63-.626-25.718-.626-9.124,0-17.2.335-24.683,1.024A172.62,172.62,0,0,0,305.9,16.285l-2.531.61a108.353,108.353,0,0,0-13.331,3.964A42.947,42.947,0,0,0,278.02,27.6a33.7,33.7,0,0,0-7.889,9.886,107.757,107.757,0,0,0-5.31,11.628l-.309.755-.437,1.054a62.661,62.661,0,0,1-5.916,11.251,33.445,33.445,0,0,1-8.883,9.035,32.164,32.164,0,0,1-12.269,4.823,97.534,97.534,0,0,1-13.18,1.273h-.01c-2.008.1-4.085.209-6.107.371a44.5,44.5,0,0,0-13.552,3.3,49.937,49.937,0,0,0-11.843,7.04,57.439,57.439,0,0,0-9.727,9.917,61.72,61.72,0,0,0-7.2,11.934c-4.256,9.278-6.639,20.33-7.082,32.848a103.729,103.729,0,0,0,.527,17.251,27.156,27.156,0,0,0,1.445,4.787c.5,1.288,1.453,3.447,2.128,3.447l.041,0a5.944,5.944,0,0,1,.814-.056,5.1,5.1,0,0,1,4.82,3.049c6.4-6.185,12.9-12.094,19.323-17.561a371.648,371.648,0,0,1,53.146-37.842c13.111-7.667,28.722-16.39,45.088-22.953l-.177,0a7.449,7.449,0,0,0-3.469.836.518.518,0,0,1-.731-.261.493.493,0,0,1,.107-.547A16.617,16.617,0,0,1,297,88.9a15.877,15.877,0,0,1,6.136-1.181,22.249,22.249,0,0,1,5.009.612c1.367-.435,2.616-.817,3.817-1.166a.607.607,0,0,1,.169-.025.521.521,0,0,1,.5.394.577.577,0,0,1-.233.66l-1.462.933c6.453,2.162,12.756,6.376,17.821,9.762l.094.063c13.155,8.792,25.075,19.535,36.6,29.923l.053.047c1.159,1.045,2.358,2.126,3.539,3.186l2.353,2.107c10.895,9.729,22.8,19.879,36,28.2a127.213,127.213,0,0,0,21.345,11.155c1.452.572,3.1,1.091,4.836,1.641,5.935,1.875,12.661,4,14.979,9.23A6.136,6.136,0,0,1,450,189.261a7.017,7.017,0,0,1-3.011,4.723c-1.851,2.037-4.546,3.07-8.011,3.07-4.5,0-9.412-1.65-14.047-3.433a149.034,149.034,0,0,1-21.866-10.5c-12.1-7.107-24.438-16.392-37.706-28.385-8.073-7.3-15.974-15.027-23.614-22.5-3.867-3.783-7.863-7.692-11.852-11.517-2.482-2.379-4.977-4.826-7.39-7.192-2.569-2.519-5.225-5.123-7.876-7.658l-2.579-2.442c-.392-.367-.807-.765-1.247-1.185a51.6,51.6,0,0,0-9.1-7.421c-2.885,1.721-5.823,3.436-8.664,5.094-4.595,2.682-9.342,5.453-13.941,8.292-9.319,5.753-19.274,12.432-30.435,20.419a465.837,465.837,0,0,0-54.1,45.461c-7.551,7.373-15.06,15.237-22.316,23.373-7,7.849-13.971,16.181-20.719,24.766a626.729,626.729,0,0,0-37.115,52.868l-1.745,2.777c-7.655,12.23-13.6,22.367-18.693,31.9A287.072,287.072,0,0,0,78.51,343.316a248.175,248.175,0,0,0-11.089,38.9,376.979,376.979,0,0,0-5.773,40.067c-1.161,12.282-1.981,24.795-2.775,36.9-.934,14.244-1.9,28.972-3.426,43.411-1.353,12.8-3.38,26.112-6.2,40.7-2.3,11.922-5.127,24.7-8.891,40.211l-1.547,6.339q-.464,1.891-.928,3.782l-.057.232,0,.008c-5.463,22.241-11.111,45.24-13.96,68.377A284.264,284.264,0,0,0,21.5,701.8c.18,10.858,1.636,21.722,3.044,32.229l.008.059c.312,2.326.634,4.732.938,7.1a7.991,7.991,0,0,1-2.466,6.586,11.483,11.483,0,0,1-6.272,3.313A10.029,10.029,0,0,1,15.274,751.2Zm786.81-13.4a11.4,11.4,0,0,1-7.438-2.652,10.743,10.743,0,0,1-3.64-7.939,544.545,544.545,0,0,0-5.659-56.154c-2.744-18.573-6.19-37.36-9.523-55.528l0-.016c-2.674-14.578-5.439-29.652-7.834-44.567-2.9-18.067-5.2-37.938-7.035-60.747-1.635-20.335-2.756-41.077-3.839-61.137v-.012c-1.385-25.637-2.817-52.148-5.338-78.074-1.356-13.952-2.911-26.628-4.753-38.754-2.067-13.608-4.44-26.175-7.253-38.42a405.144,405.144,0,0,0-15.774-52.45,352.635,352.635,0,0,0-23.22-49.58c-4.684-8.227-9.545-15.98-14.449-23.041A233.159,233.159,0,0,0,669.592,147.3c-8.481-9.588-19.908-21.97-33.1-32.7a7.152,7.152,0,0,1-5.125,2,9.377,9.377,0,0,1-5.036-1.507,8.411,8.411,0,0,1-3.4-4.231,28.3,28.3,0,0,1-1.2-7.172,40.085,40.085,0,0,0-.663-5.267,61.757,61.757,0,0,0-3.47-11.026A72.449,72.449,0,0,0,605.043,67.86a78.919,78.919,0,0,0-8.885-8.493,84.036,84.036,0,0,0-10.068-7.041c-4.458-2.66-9.269-4.185-13.922-5.66-2.819-.894-5.735-1.818-8.569-2.99a.307.307,0,0,1-.2-.288.276.276,0,0,1,.2-.254,24.569,24.569,0,0,1,8.043-1.232c6.269,0,12.989,1.833,18.143,3.43A61.1,61.1,0,0,1,602.478,51a78.362,78.362,0,0,1,11.315,8.109,72.837,72.837,0,0,1,10.055,10.522,71.943,71.943,0,0,1,7.75,12.32l.412.84a82.282,82.282,0,0,1,5.442,13.738c1.548,5.55,1.884,10.373,1,14.336-.057.254-.123.5-.2.73a186.541,186.541,0,0,1,23.133,13.467,159.012,159.012,0,0,1,20.77,16.958,228.6,228.6,0,0,1,20.919,23.4,259.671,259.671,0,0,1,17.715,25.917,290.361,290.361,0,0,1,14.493,27.453c4.194,9.076,8.085,18.692,11.564,28.581,3.3,9.368,6.331,19.29,9.021,29.49,2.523,9.568,4.832,19.722,6.862,30.18,3.6,18.524,6.471,38.658,8.791,61.552,2.151,21.235,3.568,42.195,4.779,61.681l1.263,20.677c1.532,24.864,2.979,45.747,5.062,66.843,2.431,24.619,5.463,46.333,9.271,66.381l.61,3.18c1.873,9.662,3.952,19.508,5.962,29.031l0,.016c3.8,18.012,7.733,36.637,10.514,55.091,1.5,9.94,2.55,19.023,3.215,27.769a268.448,268.448,0,0,1,.744,27.944,10.593,10.593,0,0,1-3.5,7.948A11.156,11.156,0,0,1,802.084,737.794Zm-123.566-8.3a8.133,8.133,0,0,1-6.106-2.665c-5.644-6.087-6.045-15.942-6.4-24.636v-.011c-.1-2.458-.194-4.779-.4-6.949-.771-8.238-1.659-16.577-2.638-24.786l-.5-4.125c-.188-1.52-.373-3.071-.552-4.571a219.291,219.291,0,0,0-3.7-23.611A39.732,39.732,0,0,0,646.809,618c-1.718-1.708-3.483-3.41-5.19-5.055l-.02-.019c-4.2-4.048-8.539-8.232-12.45-12.768A177.138,177.138,0,0,1,613.3,578.555a145.638,145.638,0,0,1-10.291-20.575l-.494-1.174c-.514-1.226-1.081-2.5-1.681-3.855-2.77-6.24-5.907-13.308-5.723-19.524a.428.428,0,0,1,.721-.3,29.183,29.183,0,0,1,4.968,6.824c.544.921,1.107,1.874,1.688,2.768,2.44,3.751,5,7.415,7.608,10.89,5.374,7.161,11.457,14.006,17.23,20.336a246.38,246.38,0,0,0,17.627,17.433c2.32,2.078,4.776,4.109,7.151,6.074a128.566,128.566,0,0,1,13.017,11.81c11.8,12.875,14.343,30.192,16.806,46.94l.006.04c.167,1.136.34,2.31.512,3.458l.292,1.921c1.571,10.194,3.048,20.853,4.391,31.679v.011c.589,4.753,1.258,10.141,1.792,15.444l.159,1.634a37.57,37.57,0,0,1,.106,7.533,15.676,15.676,0,0,1-2.418,7.055,10.109,10.109,0,0,1-3.619,3.3A9.766,9.766,0,0,1,678.517,729.494Zm61.184-3.555a10.812,10.812,0,0,1-8.752-5.007c-3.3-4.727-3.553-12.216-3.779-18.824-.08-2.357-.156-4.584-.361-6.576-.941-9.136-1.771-16.542-2.61-23.307-1.9-15.348-4.453-30.816-6.922-45.244-2.9-16.96-6.578-34.087-10.131-50.65-3-14-6.106-28.466-8.732-42.77-6.824-37.163-10.076-67.933-10.232-96.836-.119-22.344,1.477-45.026,3.02-66.962v-.006c.726-10.317,1.477-20.986,2.039-31.5,1.64-30.635,3.6-63.3,5.984-99.875a.75.75,0,0,1,.77-.724.707.707,0,0,1,.73.724c.167,7.691.33,15.445.522,24.721.315,15.171.516,30.605.711,45.531v.015c.329,25.2.669,51.26,1.563,76.873,1,28.723,2.61,53.817,4.916,76.716,1.482,14.712,3.6,29.922,6.479,46.5,2.408,13.867,5.4,28.933,9.144,46.059,1.667,7.621,3.4,15.333,5.067,22.791l.016.072c1.769,7.895,3.6,16.058,5.352,24.1.615,2.819,1.249,5.692,1.862,8.47l.071.323c2.689,12.18,5.47,24.774,7.6,37.23,2.337,13.646,4.872,29.753,5.96,45.75l.129,2c.085,1.407.23,2.932.384,4.546a82.836,82.836,0,0,1,.547,10.776c-.158,4.1-.953,7.248-2.43,9.626C746.468,723.949,743.216,725.938,739.7,725.938ZM486.637,172.392a27.284,27.284,0,0,1-11.867-2.885,64.852,64.852,0,0,1-10.6-6.7l-.773-.582c-7.848-5.941-14.886-11.612-21.518-17.338a338.668,338.668,0,0,1-39.751-39.919,276.8,276.8,0,0,1-16.889-22.287,146.822,146.822,0,0,1-13.53-24.432,1.158,1.158,0,0,1,.095-1.1.99.99,0,0,1,.814-.466,1.033,1.033,0,0,1,.711.313c3.755,3.573,7.284,7.287,10.242,10.45.039-2.172-.107-4.389-.247-6.534a56.109,56.109,0,0,1-.09-9.328c.2-1.924.321-3.95.44-5.909.285-4.664.579-9.486,1.87-13.83a11.832,11.832,0,0,1,11.225-8.475,11.287,11.287,0,0,1,2.989.4,12.412,12.412,0,0,1,7.408,6.287,9.772,9.772,0,0,1,.661,7.928c-1.751,4.652-4.5,8.875-7.168,12.959l0,.006c-.985,1.511-2,3.073-2.958,4.636a62.452,62.452,0,0,1-5.835,7.661,65.748,65.748,0,0,0-5.522,7.165l3.666,3.952c1.624,1.745,3.552,3.806,5.534,5.858l6.395,6.624c4.746,4.905,9.866,10.146,15.144,15.237,9.052,8.731,16.169,15.337,23.076,21.42,8.562,7.54,16.555,14.032,24.438,19.846,3.51,2.588,7.6,5.579,11.757,8.332l1.492.988c2.434,1.594,5.29,3.3,8.371,3.3.252,0,.506-.012.755-.034,6.872-.631,13.219-6.987,18.319-12.1.9-.9,1.741-1.743,2.56-2.532l.29-.277a310.9,310.9,0,0,0,37.546-42.689c2.376-3.286,4.726-6.685,7.182-10.39-4.343-5.073-4.337-14.085-4.332-21.326v-.014c0-1.718,0-3.341-.054-4.794-.2-5.023-.223-10.128-.248-15.065l-.005-.993-.014-1.08-.008-.388c-.067-3.347-.13-6.508,2.035-9.254a.387.387,0,0,1,.314-.133.566.566,0,0,1,.255.06c2.835,1.485,3.855,3.869,5.036,6.63l.044.1q.131.305.265.616l.137.315c1.243,2.827,2.464,5.721,3.646,8.52l0,.011.041.1q.495,1.172.99,2.344c1.407,3.321,2.732,6.734,4.012,10.035l.607,1.564c.629,1.616,1.292,3.394,2.027,5.436.383,1.116.787,2.253,1.236,3.475l.1.089A10.377,10.377,0,0,1,570.4,75.7a7.256,7.256,0,0,1,3.726,4.729c1.329,4.774-1.228,8.707-3.7,12.51l-.366.563a314.442,314.442,0,0,1-35.638,45.528c-6.512,6.865-13.483,13.545-20.719,19.855l-1.261,1.092a75.241,75.241,0,0,1-10.264,7.669,32.476,32.476,0,0,1-11.894,4.471A24.615,24.615,0,0,1,486.637,172.392Z" transform="translate(2 -21.143)"></path></g><g transform="translate(225 0)"><g><g id="head_Bun_2" data-name="head/Bun 2"><path id="_Skin" data-name="âœ‹ Skin" d="M360.5,209.076c-2.376-30.744,1.306-62.968-10.548-92.19C329.286,68.4,271.33,52.235,226.4,33.776c-18-5.319-78.569-6.062-99.645-13.1-47.7-15.932-59.1-34.914-97-4.58A41.2,41.2,0,0,0,16.434,34.6l.12.033a10.259,10.259,0,0,0,1.939,8.854C2.059,60.289-4.818,85.473,3.614,107.834c27.517,58.189,26.223,89.652,17.357,152.208-11.578,58.4,14.879,79.733,58.7,111.509-1.784,3.459-2.154,8.056.172,11.108,50.667,71.2,146.2,105.193,228.053,69.055,33.225-14.788,48.058-50.171,56.523-82.1,9.861-35.749,12.891-73.419,4.863-109.835C366.039,242.939,361.821,226.219,360.5,209.076Z" transform="translate(37 34.68)" fill="#d08b5b"></path><path id="bandana" d="M0,121.863l30.127,20.07L137.966,28.245,102.079,0S36.973,48.118,24.171,60.818,0,121.863,0,121.863Z" transform="translate(34.604 34.68)" fill="#9fd8e5"></path><path id="_Ink" data-name="ðŸ– Ink" d="M384.558,604.7a151.3,151.3,0,0,1-36.1-4.522,185.333,185.333,0,0,1-24.524-7.962,14.644,14.644,0,0,1-6.271-4.29,5.77,5.77,0,0,1-1.3-4.564c.459-2.4,2.717-4.009,5.618-4.009a9.491,9.491,0,0,1,3,.517,219.121,219.121,0,0,0,24.293,6.627,150.865,150.865,0,0,0,30.7,3.479,98.535,98.535,0,0,0,12.706-.788c16.34-2.136,29.921-5.723,41.52-10.965A94.54,94.54,0,0,0,452.37,567.5a88.027,88.027,0,0,0,15.72-15.39,102.812,102.812,0,0,0,12.736-20.939,145.116,145.116,0,0,0,9.216-27.368,227.9,227.9,0,0,0,5.159-34.678,370.83,370.83,0,0,0,.564-42.868c-.335-8.264-1-16.668-1.647-24.795-.75-9.451-1.525-19.22-1.783-28.825-.185-7.012-.269-14.137-.351-21.026-.122-10.288-.248-20.927-.71-31.383l-.256-5.957c-.3-7.031-.62-13.923-1.143-20.923-.192-.823-.377-1.663-.556-2.476-.408-1.856-.829-3.771-1.365-5.614a120.666,120.666,0,0,0-8.21-20.91,5.8,5.8,0,0,1-2.5,1.14,40.3,40.3,0,0,1-7.178.678,30.554,30.554,0,0,1-12.682-2.667,31.225,31.225,0,0,1-8.16-5.29,12.45,12.45,0,0,1-2.59-3.07l-.234,0a12.835,12.835,0,0,1-4.42-.748A8.63,8.63,0,0,1,438.414,252a8.533,8.533,0,0,1-2.033-3.875,6.981,6.981,0,0,1,.3-3.79l.092-.245-.221-.08a38.48,38.48,0,0,1-13.67,16.9,43.651,43.651,0,0,1-15.052,6.586,74.682,74.682,0,0,1-16.417,1.884c-.543.008-1.094.012-1.639.012-11.593,0-23.7-1.775-35.1-3.592-3.783-.6-6.667-1.167-9.35-1.84-.046.046-.092.095-.14.146-.075.08-.151.161-.23.234a34.875,34.875,0,0,1-11.082,7.205,33.419,33.419,0,0,1-12.569,2.44,35.1,35.1,0,0,1-13.949-2.925,49.467,49.467,0,0,1-10.4-6.171A72.069,72.069,0,0,1,288,256.668c-.086,3.336-.253,6.387-.51,9.329l-.112,1.228c-.567,5.9-1.683,11.92-5.969,16.013a14.693,14.693,0,0,1-10.524,4.068,25.2,25.2,0,0,1-7.552-1.28,42.307,42.307,0,0,1-7.263-3.138c.01.21.01.433.01.65,2.021,6.868,4.086,13.861,6.083,20.624l.041.14.465,1.576.474,1.588q.243.8.49,1.61l.005.017c1.43,4.684,2.909,9.527,3.341,14.5.471,5.419-1.14,10.719-4.311,14.177a11.994,11.994,0,0,1-9.043,4.009,15.7,15.7,0,0,1-4.527-.707c-5.176-1.556-9.429-5.405-13.542-9.128l-.013-.011c-.791-.716-1.538-1.392-2.3-2.057l-2.988-2.584a337.742,337.742,0,0,1,9.506,38.493,246.517,246.517,0,0,1,4.084,39.318,2.593,2.593,0,0,1-2.56,2.56c-.273.011-.552.017-.829.017a24.621,24.621,0,0,1-8.971-1.786,5.165,5.165,0,0,1-.55-.05,37.027,37.027,0,0,1-15-5.67,27.846,27.846,0,0,1,1.219,10.45.94.94,0,0,1-.939.825.7.7,0,0,1-.72-.6,24.571,24.571,0,0,0-9.549-14.372,29.43,29.43,0,0,0-7.9-4.292,25.769,25.769,0,0,0-8.694-1.564,21.987,21.987,0,0,0-4.09.378,31.57,31.57,0,0,0-17.393,9.875,36.062,36.062,0,0,0-5.718,8.342,36.606,36.606,0,0,0-3.23,9.663,49.41,49.41,0,0,0,1.4,22.392,56.585,56.585,0,0,0,4.258,10.635,51.172,51.172,0,0,0,6.205,9.283c3.485,4.127,9.234,9.3,16.83,10.51a22.1,22.1,0,0,0,3.437.27,21.011,21.011,0,0,0,5.894-.83,31.276,31.276,0,0,0,3.055-1.144l.645-.266a17.1,17.1,0,0,1,2.681-.752,14.834,14.834,0,0,0,2.859-.838,4.884,4.884,0,0,1,2.009-.444,4.127,4.127,0,0,1,3.7,6.155c-1.674,3.4-3.189,5.709-5.98,7.47a52.474,52.474,0,0,1,3.957,5.868c.484.8.866,1.426,1.113,1.761a176.756,176.756,0,0,0,12.24,14.98,127.692,127.692,0,0,0,14.6,13.41l2.182,1.723c4.969,3.941,9.367,7.664,12.878,13.326a6.683,6.683,0,0,1,.046,6.851,7.339,7.339,0,0,1-2.454,2.621,6.576,6.576,0,0,1-3.533,1.039h-.088a29,29,0,0,1-11.408-2.566,40.845,40.845,0,0,1-9.835-6.359c-6.585-5.625-11.913-13.044-15.347-18.135-1.166-1.739-2.3-3.63-3.38-5.62a12.01,12.01,0,0,1-1.27,1.7l.931,2.5a5.6,5.6,0,0,1-.612,5.368,7.429,7.429,0,0,1-2.81,2.371,8.218,8.218,0,0,1-3.64.875,6.433,6.433,0,0,1-3.15-.784,5.832,5.832,0,0,1-2.369-2.532,104.85,104.85,0,0,0-8.66-14.2,7.365,7.365,0,0,1-4.82-2.93c-.852-1.235-1.754-2.5-2.626-3.715-1.848-2.585-3.76-5.258-5.445-8.005-1.3-1.233-2.688-2.476-4.25-3.8l-.214.188-.013.011c-.343.3-.7.611-1.033.93a53.02,53.02,0,0,1-6.86,11.51l-.6.762a58.428,58.428,0,0,1-9.234,9.547,27.18,27.18,0,0,1-11.687,5.731,2.928,2.928,0,0,1-.546.051,3.353,3.353,0,0,1-3.029-2.09,2.466,2.466,0,0,1,.744-2.822,95.359,95.359,0,0,1,7.971-6.208,69.166,69.166,0,0,0,10.749-8.952,67.342,67.342,0,0,0,7.418-9.7l.492-.8c.328-.536.681-1.1,1.111-1.78-2.516-1.714-5.065-3.461-7.53-5.15-4.125,3.524-9.081,5.95-13.874,8.3a96.977,96.977,0,0,0-9.676,5.2l-.76.5a6.441,6.441,0,0,1-3.61,1.166,6.314,6.314,0,0,1-3.839-1.361,8.25,8.25,0,0,1-2.549-3.336,6.846,6.846,0,0,1,1.348-7.679A151.066,151.066,0,0,0,135.3,466.246l0,0h0c1.393-1.825,2.832-3.712,4.269-5.531a39.892,39.892,0,0,1-4.2-15.827c-.181-1.62-.327-3.283-.455-4.75v-.008h-.253a19.293,19.293,0,0,1-10.828-3.561l-1.249-.89a37.8,37.8,0,0,1-11.335,1.8c-.305,0-.613,0-.915-.012a10.592,10.592,0,0,1-5.817-1.836A10.172,10.172,0,0,1,101,431.341a10.966,10.966,0,0,1-.805-5.96,11.436,11.436,0,0,1,2.707-5.873,20.973,20.973,0,0,1,16.013-6.867,24.221,24.221,0,0,1,9.016,1.737c.264-.137.548-.289.82-.44a9.69,9.69,0,0,1,.144-4.975l-.132-.894a23.11,23.11,0,0,1-3.517-9.478,21.892,21.892,0,0,1,.336-8.057,13.655,13.655,0,0,1,.624-1.825c.117-.3.238-.6.348-.911a17.687,17.687,0,0,1-1.207-5.292c-.175-.208-.377-.453-.562-.712a14.309,14.309,0,0,1-2.727-9.227,14.529,14.529,0,0,1,3.367-8.391c.019-.314.048-.617.086-.9-.228-.511-.443-1.044-.639-1.582-4.62-4.661-6.642-9.38-6.183-14.427a15.02,15.02,0,0,1,3.85-8.815,5,5,0,0,1,.044-3.495,41.794,41.794,0,0,1-2.455-14.627,65.272,65.272,0,0,1,1.932-15.43,13.613,13.613,0,0,1-.761-4.981,15.284,15.284,0,0,1,4.407-9.958,14.885,14.885,0,0,1,4.5-3.174,13.081,13.081,0,0,1,5.421-1.188h.149a13.09,13.09,0,0,1,2.629.306l.012-.179a20.187,20.187,0,0,1,1.82-6.206,3.936,3.936,0,0,1-1.218-.7,68.672,68.672,0,0,1-15.629,6.015,4.744,4.744,0,0,1-1.15.142,5.5,5.5,0,0,1-4.693-2.873,4.379,4.379,0,0,1,.2-4.614,33.7,33.7,0,0,1,3.821-4.765,49.085,49.085,0,0,0-5.969.4,7.022,7.022,0,0,1-.9.057,9.768,9.768,0,0,1-5.01-1.549,13.9,13.9,0,0,1-4.1-3.849c-2.92,2.84-5.888,5.706-8.758,8.479l-.023.022a11.229,11.229,0,0,1-7.9,3.34,11.746,11.746,0,0,1-7.793-3.052,12.593,12.593,0,0,1-4.107-7.868,16.681,16.681,0,0,1-6.08-3.02,101.7,101.7,0,0,1-18.141,5.906,106.962,106.962,0,0,1-19.019,2.494c-.158.006-.318.01-.474.01a10.576,10.576,0,0,1-5.681-1.612,11.836,11.836,0,0,1-3.925-4.1,12.93,12.93,0,0,1-1.745-6.036,11.786,11.786,0,0,1,1.5-6.24,60.041,60.041,0,0,1,10.65-13.66,124.923,124.923,0,0,1-19.879,4.3,6.158,6.158,0,0,1-.811.052,11.064,11.064,0,0,1-5.592-1.813,10.076,10.076,0,0,1-3.927-4.159,44.41,44.41,0,0,1,1.33-39.08c.2-.4.423-.8.638-1.175l0-.006.158-.28c.678-1.688,1.415-3.35,2.191-4.94A25.254,25.254,0,0,1,1.44,180.624a32.681,32.681,0,0,1,2.413-16.246,10.414,10.414,0,0,1-1.21-9.19,80.525,80.525,0,0,1,6.071-12.564,77.1,77.1,0,0,1,8.119-11.206,24.271,24.271,0,0,1-2.75-11.638,29.611,29.611,0,0,1,1.217-8.155,30.337,30.337,0,0,1,8.522-13.847,41.25,41.25,0,0,1,16.92-9,48.248,48.248,0,0,1,9.8-12.19l.011-.024c.145-.319.294-.645.459-.966A34.421,34.421,0,0,1,63.273,62.414a38,38,0,0,1,7.942-3.76,42.457,42.457,0,0,1,8.629-1.946,12.57,12.57,0,0,1,2.447-6.191,10.862,10.862,0,0,1,5.373-3.889,36.65,36.65,0,0,1,5.449-10.87,15.469,15.469,0,0,1,4.738-4.287,11.383,11.383,0,0,1,11.622,0,71.829,71.829,0,0,1,9.48,6.459,13.036,13.036,0,0,1,4.568-1.163l.432-.027,9.859-.5c2.617-1.16,5.274-2.376,7.843-3.551,1.4-.642,2.991-1.369,4.537-2.069a33.146,33.146,0,0,1,8.27-5.03,33.682,33.682,0,0,1,10.43-2.51,89.562,89.562,0,0,1,8.64-2.39,95.455,95.455,0,0,1,20.331-2.274c.277,0,.556,0,.829,0,.148-1.876.217-3.759.2-5.6l-.014-.945a11.11,11.11,0,0,1,2.986-7.816A12.588,12.588,0,0,1,205.244.138,12.261,12.261,0,0,1,207.058,0a10.751,10.751,0,0,1,6.819,2.391,14.777,14.777,0,0,1,4.372,6.018l.116.29c.68,1.753,1.449,3.507,2.35,5.36a41.636,41.636,0,0,1,9.1-3.191,43.943,43.943,0,0,1,9.731-1.1,38.111,38.111,0,0,1,16.008,3.371,30.132,30.132,0,0,1,6.817,4.35,27.876,27.876,0,0,1,5.439,6.247,23.286,23.286,0,0,1,3.123,7.575,30.6,30.6,0,0,1,.635,7.956c-.217,5.38-1.52,10.853-2.781,16.145-.3,1.244-.6,2.531-.887,3.784l-1.72,7.629a13.051,13.051,0,0,1,4.148,4.236,10.274,10.274,0,0,1,1.566,5.592l-.014.3-.7,10.64a55.343,55.343,0,0,0,6.06-7.31c1.275-2.335,2.637-4.6,4.05-6.72a11.772,11.772,0,0,1,9.916-5.655,12.673,12.673,0,0,1,10.6,5.953,11.663,11.663,0,0,1,.123,11.763,72,72,0,0,1-4.5,7.581,67.366,67.366,0,0,0-4.51,11.01c3.667,1.6,5.913,5.071,6.16,9.53a28.151,28.151,0,0,1-.715,8.134,27.567,27.567,0,0,1-2.9,7.275,30.478,30.478,0,0,1-4.794,6.263,35.712,35.712,0,0,1-6.4,5.1,10.808,10.808,0,0,1-5.8,1.747,10.276,10.276,0,0,1-2.48-.307c-.425.573-.908,1.224-1.36,1.87a60.338,60.338,0,0,1,10.12,10.45,182.965,182.965,0,0,1,26.56-1.96c6.055-2.966,13.3-4.47,21.52-4.47a83.408,83.408,0,0,1,13.951,1.261,139.372,139.372,0,0,1,14,3.4l.005,0c2.639.739,5.369,1.5,8.078,2.159a104.707,104.707,0,0,0,14.111,2.083c3.1.313,6.3.636,9.44,1.147a42.336,42.336,0,0,1,13.713,4.613,32.252,32.252,0,0,1,10.376,8.887c5.54.166,11.78,2.29,17.57,5.98,7.854,5.008,15.811,10.147,23.505,15.117l.041.027c4.239,2.738,8.623,5.57,12.954,8.356,4.483,2.885,6.457,7.557,5.558,13.157l-.059.343-.409,2.22.962,1.366.84,1.184c3.5,4.926,7.117,10.019,9.347,15.39a178.445,178.445,0,0,1,12.06,20.119,146.339,146.339,0,0,1,11.471,29.4c.625,2.4,1.333,5.115,1.78,7.78a20.378,20.378,0,0,1-.432,7.615v.005c-.151.8-.308,1.633-.437,2.5-.315,2.149-.538,4.35-.754,6.477-.236,2.33-.48,4.737-.846,7.093a5.035,5.035,0,0,1-2.014,3.361,6.563,6.563,0,0,1-3.656,1.179c1,7.582,1.708,15.144,2.41,22.87,1.053,11.783,1.728,23.633,2.2,32.64,2.907,4.222,8.887,7.633,13.29,8.82a19.265,19.265,0,0,0,4.981.63c4.578,0,9.145-1.425,13.009-2.819a3.7,3.7,0,0,1,1.259-.227,3.961,3.961,0,0,1,3.377,2.128,4.318,4.318,0,0,1,.125,4.3,15.175,15.175,0,0,1-6.347,6.061,18.121,18.121,0,0,1-8.238,1.83,27.149,27.149,0,0,1-11.445-2.681,24.439,24.439,0,0,1-9.481-7.629c.142,3,.3,6.049.446,9l0,.038.023.451.148,2.871c.3,5.575.663,11.286,1.015,16.81.888,13.936,1.806,28.342,1.832,42.507.014,7.633-.226,14.559-.734,21.173a188.772,188.772,0,0,1-2.723,20.93,131.439,131.439,0,0,1-14.652,40.143,129.37,129.37,0,0,1-25.957,32.5A125.413,125.413,0,0,1,433.7,594.761a122.648,122.648,0,0,1-41.217,9.707C389.87,604.621,387.2,604.7,384.558,604.7ZM198.334,484.188h0c-1.01.216-2.006.384-2.96.5l.039.094c.278.688.566,1.4.851,2.126.822.462,1.636.893,2.42,1.28a20.544,20.544,0,0,1-.35-4Zm-50.671-13.516a22.414,22.414,0,0,1,2.54.146l0-.149-.08-.027a3.6,3.6,0,0,1-.452-.175,22.158,22.158,0,0,1-2.711-1.547l-.665,1.225-.284.529-.034.064C146.538,470.694,147.106,470.672,147.663,470.672ZM134.6,289.878c-1.013.034-1.373.512-1.368.825a.248.248,0,0,0,.249.268c.11,0,.408-.067.8-.684A3.06,3.06,0,0,1,134.6,289.878ZM249.04,152.356c-9.2.242-19.142,2.9-29.552,7.887a136.73,136.73,0,0,0-25.774,16.479,175.248,175.248,0,0,0-18.349,16.992,224.706,224.706,0,0,0-16.04,19.2,208.751,208.751,0,0,0-6.651,20.3c-.79,2.9-1.4,5.874-1.99,8.749l0,.013c-.329,1.6-.669,3.259-1.037,4.889l-.32,1.4a21.979,21.979,0,0,0-1.849,4.82,14.226,14.226,0,0,0,6.792,3.757,4.211,4.211,0,0,1,2.087,1.207,44.056,44.056,0,0,0,4.994-11.1l.039-.182a229.783,229.783,0,0,1,13.1-19.167,274.425,274.425,0,0,1,20.589-24.305A197.675,197.675,0,0,1,218.8,182.068a149.777,149.777,0,0,1,20.556-13.039,143.076,143.076,0,0,1,22.394-9.432A46.935,46.935,0,0,0,249.04,152.356ZM212.754,443.809c-.106,0-.214,0-.32-.011-6.169-.422-10.373-5.131-14.439-9.684-1.454-1.628-2.827-3.165-4.291-4.526a96.218,96.218,0,0,0-19.571-14.34,1.1,1.1,0,0,1-.529-1.257,1.118,1.118,0,0,1,1-.924h.121a77.4,77.4,0,0,1,12.495,1.612,54.336,54.336,0,0,1,11.894,4.13l.691.338a56.846,56.846,0,0,1,11.977,7.517,20.123,20.123,0,0,1,4.526,5.4,10.985,10.985,0,0,1,1.376,6.48,6.774,6.774,0,0,1-1.5,3.592A4.448,4.448,0,0,1,212.754,443.809Z" transform="translate(-100 -97.001)"></path></g></g><g transform="translate(159 186)"><g><path d="M175.373 49.5872C175.699 49.4437 175.991 49.2049 176.203 48.8583C178.978 44.3099 179.267 38.8813 178.039 33.5637C176.563 27.172 172.899 20.9588 168.944 16.7559C163.959 11.4582 157.895 7.75374 151.246 4.94731C150.762 4.74287 150.267 4.53098 149.763 4.31514C142.964 1.40541 134.597 -2.01031 127.865 1.47064C125.161 2.86951 123.673 5.20381 123.256 7.7496C122.814 10.4534 123.597 13.4099 125.462 15.7216C128.557 19.5594 133.339 20.3533 138.087 21.0465C139.602 21.2677 141.106 21.486 142.53 21.8229C147.429 22.9821 152.604 24.4361 157.104 26.7244C166.253 31.3762 170.54 38.5898 172.747 48.2853C172.837 48.6781 173.037 48.9988 173.3 49.2406C173.575 49.4928 173.921 49.6579 174.285 49.7192C174.651 49.7808 175.032 49.7375 175.373 49.5872ZM58.3942 19.1934C55.0693 22.4329 51.1339 22.9347 47.1526 23.381C44.9405 23.6313 43.1746 23.8331 41.4369 24.2252C36.6605 25.3034 31.9393 26.9272 27.6319 29.2659C23.1292 31.7106 18.2224 34.659 14.6922 38.4361C13.8528 39.3349 13.0615 40.278 12.2691 41.2232C11.5465 42.0851 10.8505 42.9149 10.1169 43.7149C9.27449 44.6339 8.47449 45.597 7.67875 46.5576C7.1867 47.3681 7.0895 47.5675 6.99041 47.775C6.8413 48.0869 6.66786 48.4359 6.46976 48.8103C6.19845 49.323 5.88066 49.8843 5.54784 50.3932C4.9941 51.3234 4.69697 51.5796 4.44022 51.6942C4.01419 51.8839 3.61015 51.9774 3.21817 51.9268C2.85064 51.8793 2.50438 51.7028 2.16244 51.4138C0.455387 49.9715 -0.0480658 47.6046 0.00353523 45.092C0.0818393 41.2793 1.48813 37.0578 2.78452 34.4628C5.79888 28.4331 9.97938 22.1649 15.0062 17.6646C20.7422 12.5276 27.0177 8.63869 34.2256 5.95894C38.705 4.29304 43.8913 2.76391 48.7713 2.95706C52.284 3.09609 55.6373 4.14026 58.4066 6.74782C60.1072 8.34853 60.9235 10.6254 60.9235 12.9006C60.9235 15.2211 60.0757 17.5554 58.3942 19.1934ZM164.634 78.3299C166.478 78.8824 167.779 78.6212 169.441 77.7551C170.719 77.0896 171.589 76.0387 172.088 74.8117C172.599 73.5559 172.706 72.1077 172.454 70.7659C171.405 65.1948 168.042 60.2513 163.503 57.0672C159.091 53.9728 153.589 52.5435 148.048 53.7341C144.003 54.6036 138.007 58.4424 134.85 63.1243C133.504 65.1203 132.671 67.2595 132.581 69.3723C132.495 71.387 133.008 73.4183 135.676 76.096C135.935 76.177 136.208 76.2208 136.477 76.2208C137.138 76.2208 137.821 75.9439 138.274 75.5441C139.469 74.4935 140.311 73.1636 141.178 71.7329C141.641 70.9679 142.102 70.1976 142.69 69.5195C144.449 67.4927 147.002 65.7736 149.683 65.3262C152.167 64.911 154.406 65.6469 156.181 67.0355C158.256 68.6601 159.713 71.1522 160.252 73.8146C160.472 74.8933 161.036 75.8657 161.818 76.6477C162.607 77.4367 163.615 78.0237 164.634 78.3299ZM46.1749 69.1109C43.7479 67.5587 40.8928 67.0259 37.7287 68.4655C35.256 69.5899 30.9192 73.3385 27.9011 78.2662C25.8363 81.6374 24.3721 85.5922 24.6769 89.7117C24.7477 90.6684 24.3942 91.3738 23.8366 91.8954C23.3962 92.3073 22.7601 92.61 22.013 92.7047C21.3786 92.785 20.6686 92.7125 20.0913 92.5324C18.9931 92.1896 18.4119 91.4772 18.1929 90.8957C16.0797 85.2836 16.9901 79.0208 19.3585 73.3707C22.5547 65.7456 28.3592 59.3585 32.1622 57.2993C38.6698 53.7742 46.347 53.612 52.8639 57.2031C58.4114 60.2596 61.8802 65.1942 65.3301 70.2242C66.0635 71.2934 66.7914 72.3548 67.5436 73.3976C69.0513 75.487 69.2013 77.5593 68.6175 79.3363C67.9707 81.3049 66.3215 82.9663 64.2592 83.8357C62.353 84.6393 60.1407 84.7524 58.1831 83.9268C56.5293 83.2293 55.0117 81.8695 54.0513 79.5625C52.434 75.6771 49.7393 71.3904 46.1749 69.1109ZM127.748 115.98C135.872 104.601 124.366 93.898 116.814 89.3079C114.836 87.8879 116.406 83.1842 120.634 83.9112C159.031 90.5082 139.136 156.649 90.112 120.354C84.2754 115.645 91.3434 105.275 97.6342 109.307C97.9532 109.552 98.2876 109.81 98.6364 110.08C105.704 115.544 118.636 125.542 127.748 115.98ZM117.042 185.1C109.675 187.233 101.768 187.424 94.2589 185.221C87.4481 183.222 80.4549 178.823 75.4423 173.003C70.9894 167.832 68.1055 161.549 68.2187 154.842C68.2316 154.076 68.5055 153.436 68.9268 152.94C69.3804 152.406 70.014 152.039 70.6926 151.88C71.3906 151.716 72.1285 151.774 72.7568 152.059C73.3256 152.318 73.8129 152.757 74.1176 153.398C74.8879 154.41 75.6553 155.407 76.4257 156.376C82.6196 164.024 88.618 169.74 97.9319 171.79C102.985 172.903 108.032 172.409 112.663 170.712C117.62 168.895 122.102 165.7 125.613 161.612C127.2 159.765 129.074 159.011 130.905 158.998C132.982 158.983 135.034 159.948 136.579 161.49C138.099 163.006 139.116 165.065 139.209 167.219C139.29 169.11 138.673 171.085 137.032 172.848C131.626 178.652 124.621 182.904 117.042 185.1Z" transform="translate(54.00004 55.05923)" fill-rule="evenodd" stroke="none"></path></g></g><g transform="translate(123 338)"></g><g transform="translate(47 241)"></g></g></g></svg>